<svg xmlns="http://www.w3.org/2000/svg" viewBox="0 0 120 120" width="120" height="120">
  <rect width="120" height="120" fill="#F1F2FE"/>
  <g fill="#444BF7"><circle cx="6.0" cy="6.0" r="6.15"/><circle cx="27.6" cy="6.0" r="6.15"/><circle cx="49.2" cy="6.0" r="6.15"/><circle cx="70.8" cy="6.0" r="6.15"/><circle cx="92.4" cy="6.0" r="6.15"/><circle cx="114.0" cy="6.0" r="6.15"/><circle cx="6.0" cy="27.6" r="6.15"/><circle cx="27.6" cy="27.6" r="6.15"/><circle cx="49.2" cy="27.6" r="6.15"/><circle cx="70.8" cy="27.6" r="6.15"/><circle cx="92.4" cy="27.6" r="6.15"/><circle cx="114.0" cy="27.6" r="6.15"/><circle cx="6.0" cy="49.2" r="6.15"/><circle cx="27.6" cy="49.2" r="6.15"/><circle cx="49.2" cy="49.2" r="6.15"/><circle cx="70.8" cy="49.2" r="6.15"/><circle cx="92.4" cy="49.2" r="6.15"/><circle cx="114.0" cy="49.2" r="6.15"/><circle cx="6.0" cy="70.8" r="6.15"/><circle cx="27.6" cy="70.8" r="6.15"/><circle cx="49.2" cy="70.8" r="6.15"/><circle cx="70.8" cy="70.8" r="6.15"/><circle cx="92.4" cy="70.8" r="6.15"/><circle cx="114.0" cy="70.8" r="6.15"/><circle cx="6.0" cy="92.4" r="6.15"/><circle cx="27.6" cy="92.4" r="6.15"/><circle cx="49.2" cy="92.4" r="6.15"/><circle cx="70.8" cy="92.4" r="6.15"/><circle cx="92.4" cy="92.4" r="6.15"/><circle cx="114.0" cy="92.4" r="6.15"/><circle cx="6.0" cy="114.0" r="6.15"/><circle cx="27.6" cy="114.0" r="6.15"/><circle cx="49.2" cy="114.0" r="6.15"/><circle cx="70.8" cy="114.0" r="6.15"/><circle cx="92.4" cy="114.0" r="6.15"/><circle cx="114.0" cy="114.0" r="6.15"/></g>
</svg>
